HIERARCHY
ROOT Hips
{
	OFFSET -3.958830 18.904000 13.208200
	CHANNELS 6 Xposition Yposition Zposition Zrotation Yrotation Xrotation 
	JOINT LHipJoint
	{
		OFFSET 0.000000 0.000000 0.000000
		CHANNELS 3 Zrotation Yrotation Xrotation
		JOINT LeftUpLeg
		{
			OFFSET 1.800000 -1.400000 0.085000
			CHANNELS 3 Zrotation Yrotation Xrotation
			JOINT LeftLeg
			{
				OFFSET 2.215000 -6.000000 0.000000
				CHANNELS 3 Zrotation Yrotation Xrotation
				JOINT LeftFoot
				{
					OFFSET 2.500000 -6.900000 0.000000
					CHANNELS 3 Zrotation Yrotation Xrotation
					JOINT LeftToeBase
					{
						OFFSET 0.200000 -0.500000 1.950000
						CHANNELS 3 Zrotation Yrotation Xrotation
						End Site
						{
							OFFSET 0.000000 0.000000 0.000000
						}
					}
				}
			}
		}
	}
	JOINT RHipJoint
	{
		OFFSET 0.000000 0.000000 0.000000
		CHANNELS 3 Zrotation Yrotation Xrotation
		JOINT RightUpLeg
		{
			OFFSET -1.800000 -1.400000 0.085000
			CHANNELS 3 Zrotation Yrotation Xrotation
			JOINT RightLeg
			{
				OFFSET -2.215000 -6.000000 0.000000
				CHANNELS 3 Zrotation Yrotation Xrotation
				JOINT RightFoot
				{
					OFFSET -2.500000 -6.900000 0.000000
					CHANNELS 3 Zrotation Yrotation Xrotation
					JOINT RightToeBase
					{
						OFFSET -0.200000 -0.500000 1.950000
						CHANNELS 3 Zrotation Yrotation Xrotation
						End Site
						{
							OFFSET 0.000000 0.000000 0.000000
						}
					}
				}
			}
		}
	}
	JOINT LowerBack
	{
		OFFSET 0.000000 0.000000 0.000000
		CHANNELS 3 Zrotation Yrotation Xrotation
		JOINT Spine
		{
			OFFSET -0.087000 1.940000 -0.288900
			CHANNELS 3 Zrotation Yrotation Xrotation
			JOINT Spine1
			{
				OFFSET 0.000000 1.950000 0.060000
				CHANNELS 3 Zrotation Yrotation Xrotation
				JOINT Neck
				{
					OFFSET 0.000000 0.000000 0.000000
					CHANNELS 3 Zrotation Yrotation Xrotation
					JOINT Neck1
					{
						OFFSET 0.000000 1.600000 0.340000
						CHANNELS 3 Zrotation Yrotation Xrotation
						JOINT Head
						{
							OFFSET 0.000000 1.667000 -0.240000
							CHANNELS 3 Zrotation Yrotation Xrotation
							End Site
							{
								OFFSET 0.000000 0.000000 0.000000
							}
						}
					}
				}
				JOINT LeftShoulder
				{
					OFFSET 0.000000 0.000000 0.000000
					CHANNELS 3 Zrotation Yrotation Xrotation
					JOINT LeftArm
					{
						OFFSET 2.700000 1.550000 -0.730000
						CHANNELS 3 Zrotation Yrotation Xrotation
						JOINT LeftForeArm
						{
							OFFSET 5.450000 0.000000 0.000000
							CHANNELS 3 Zrotation Yrotation Xrotation
							JOINT LeftHand
							{
								OFFSET 3.450000 0.000000 0.000000
								CHANNELS 3 Zrotation Yrotation Xrotation
								JOINT LeftHandIndex1
								{
									OFFSET 0.750000 0.000000 0.000000
									CHANNELS 3 Zrotation Yrotation Xrotation
									End Site
									{
										OFFSET 0.000000 0.000000 0.000000
									}
								}
							}
						}
					}
				}
				JOINT RightShoulder
				{
					OFFSET 0.000000 0.000000 0.000000
					CHANNELS 3 Zrotation Yrotation Xrotation
					JOINT RightArm
					{
						OFFSET -2.700000 1.550000 -0.730000
						CHANNELS 3 Zrotation Yrotation Xrotation
						JOINT RightForeArm
						{
							OFFSET -5.450000 0.000000 0.000000
							CHANNELS 3 Zrotation Yrotation Xrotation
							JOINT RightHand
							{
								OFFSET -3.450000 0.000000 0.000000
								CHANNELS 3 Zrotation Yrotation Xrotation
								JOINT RightHandIndex1
								{
									OFFSET -0.750000 0.000000 0.000000
									CHANNELS 3 Zrotation Yrotation Xrotation
									End Site
									{
										OFFSET 0.000000 0.000000 0.000000
									}
								}
							}
						}
					}
				}
			}
		}
	}
}
MOTION
Frames: 4
Frame Time: 0.016667
-0.092310 16.979420 -2.067530 -0.543668 -21.316365 -0.721909 -14.771235 13.592703 2.201785 7.288439 0.238344 -5.658310 -3.402245 6.522467 18.997616 -0.686412 5.314424 3.099552 0.639240 0.246520 0.402780 18.636319 -11.104625 2.720775 -20.259022 1.319042 -27.586995 7.401041 -7.894989 26.083655 -0.088669 -4.943579 2.754727 0.420090 0.715960 0.295760 -4.629906 -1.427027 -6.418949 16.287263 -8.283777 4.520513 -17.999230 -6.606866 15.718599 2.467140 -7.684742 -10.531792 -15.137808 18.963021 32.433366 -4.808440 10.244980 0.395060 -6.152572 -14.132656 6.447887 -41.263783 -13.952154 6.734517 -8.234457 -5.118193 -0.657949 -4.356787 2.923640 0.238660 0.652740 -0.436590 0.383810 1.028779 17.651221 4.795453 62.015380 50.653032 19.209314 9.607881 61.060494 2.242181 1.415083 -1.877825 -0.362110 0.367400 -0.077720 -0.265490 
-0.148130 16.947730 -2.037930 -0.404979 -19.233886 -0.223427 -14.710369 13.503635 2.185762 7.687195 0.144735 -6.941272 -3.691978 6.760539 19.848700 -0.692832 5.399469 3.099350 0.586580 0.185240 0.330220 18.668986 -11.330908 2.659920 -20.099972 1.393297 -26.408100 6.788331 -7.650998 25.621349 -0.031422 -4.929148 2.787031 0.415090 0.810920 0.285190 -4.739510 -0.905244 -6.370990 17.582796 -7.644316 3.569099 -19.101571 -6.097155 15.562225 3.172111 -7.629881 -10.382462 -14.223090 18.598779 30.902587 -4.178870 9.112790 1.933860 -6.438066 -11.907761 5.601865 -43.127775 -11.891038 5.560273 -8.441646 -5.697870 -0.749846 -4.415799 2.932635 0.185020 0.705570 -0.516180 0.402410 -0.000909 15.998107 5.679381 68.559161 53.125536 25.560260 19.077193 65.407291 7.270734 1.510380 -2.074745 -0.400350 0.395310 -0.045590 -0.238680 
-0.199920 16.928770 -2.016620 -0.509882 -17.393222 0.314741 -14.645099 13.393095 2.189612 8.465934 0.064337 -8.518603 -4.272524 7.185431 20.934606 -0.628177 5.491963 3.068058 0.529530 0.127560 0.255670 18.696892 -11.555316 2.665537 -19.470334 1.692399 -25.744739 6.303692 -7.433999 25.444912 0.005879 -4.908444 2.824170 0.367200 0.863040 0.307920 -4.845182 -0.290896 -6.409743 18.201516 -6.577056 3.084841 -19.348016 -5.276814 15.242089 4.204550 -7.118156 -10.195623 -12.392645 17.690712 30.593828 -4.208700 8.448350 3.462290 -7.580690 -10.049891 4.989557 -43.607276 -9.084250 3.752174 -8.740438 -7.589530 -0.727627 -4.441923 2.973211 0.125810 0.743230 -0.558020 0.412950 -0.791694 14.776236 6.287618 73.811080 54.476047 31.417488 28.987352 69.472087 13.635470 1.640432 -2.220501 -0.379900 0.362760 -0.022600 -0.200370 
-0.230460 16.923310 -1.998710 -0.959118 -15.644703 0.869014 -14.561844 13.219219 2.216150 9.511516 0.037307 -9.859547 -5.202143 7.621173 21.298686 -0.573721 5.539940 3.040126 0.495350 0.084410 0.205780 18.742718 -11.801211 2.697558 -18.566222 2.071323 -25.229369 5.877274 -7.220933 25.320120 0.023639 -4.864441 2.875538 0.319290 0.871920 0.324790 -5.011805 0.481529 -6.492955 19.074359 -5.006182 2.879031 -18.955084 -4.070975 14.759163 5.174464 -6.315858 -9.936626 -10.134987 16.076543 31.364236 -4.518890 7.535640 4.462960 -8.350488 -8.522415 4.484980 -44.193435 -6.897718 2.125764 -9.271546 -10.171601 -0.600620 -4.421271 3.003353 0.104990 0.748810 -0.569660 0.425050 -1.835640 13.739773 6.586861 76.732807 54.352211 35.712659 41.872267 74.301071 23.497055 1.773403 -2.258295 -0.355100 0.325330 -0.015800 -0.177630 
